<?xml version="1.0" encoding="UTF-8"?>
<svg id="logosandtypes_com" data-name="logosandtypes com" xmlns="http://www.w3.org/2000/svg" viewBox="0 0 150 150">
  <defs>
    <style>
      .cls-1 {
        fill: #4d77cf;
      }

      .cls-2 {
        fill: #4dabcf;
      }

      .cls-3 {
        fill: none;
      }
    </style>
  </defs>
  <path class="cls-3" d="M0,0H150V150H0V0Z"/>
  <path class="cls-2" d="M66.22,35.88l-22.09-11.15-24.26,12.1,22.7,11.4,23.65-12.35Z" marker-end="none" marker-start="none"/>
  <path class="cls-2" d="M76.36,41l23.17,11.7-24.04,12.07-22.73-11.41,23.6-12.35Z" marker-end="none" marker-start="none"/>
  <path class="cls-2" d="M107.3,24.9l23.8,11.94-21.29,10.69-23.21-11.71,20.7-10.92Z" marker-end="none" marker-start="none"/>
  <path class="cls-2" d="M97.06,19.76l-21.43-10.75-21.2,10.58,22.08,11.13,20.54-10.97Z" marker-end="none" marker-start="none"/>
  <path class="cls-2" d="M80.31,112.03v29.24l25.96-12.96-.02-29.26-25.93,12.97Z" marker-end="none" marker-start="none"/>
  <path class="cls-2" d="M106.23,88.86l-.03-28.95-25.89,12.87v28.96l25.92-12.88Z" marker-end="none" marker-start="none"/>
  <path class="cls-2" d="M137.39,83.43v29.36l-22.14,11.04-.02-29.22,22.16-11.18Z" marker-end="none" marker-start="none"/>
  <path class="cls-2" d="M137.39,73.17v-28.77l-22.19,11.03,.02,29.01,22.17-11.26Z" marker-end="none" marker-start="none"/>
  <path class="cls-1" d="M71.14,72.78l-17.48-8.8v37.99s-21.39-45.5-23.36-49.59c-.26-.53-1.3-1.11-1.57-1.25-3.86-2.01-15.09-7.7-15.09-7.7V110.58l15.54,8.33v-35.11s21.16,40.66,21.38,41.11c.22,.44,2.33,4.72,4.61,6.23,3.02,2.01,15.97,9.8,15.97,9.8V72.78Z" marker-end="none" marker-start="none"/>
</svg>